# xmcd
#
# Track frame offsets:
#	183
#	14468
#	28120
#	41763
#	54540
#	70158
#	86973
#	100983
#	116985
#	132260
#	149503
#	164903
#	178590
#	195173
#	208270
#	220730
#
# Disc length: 3157
#
# Revision: 1
# Processed by: cddbd v1.5.1PL0 Copyright (c) Steve Scherf et al.
# Submitted via: EasyCDDAExtractor 4.5.0.2
# Normalized: r0:TDELIM( - )
#
DISCID=fa0c5310
DTITLE=x - Die Superhits der Volksmusik
DYEAR=1992
DGENRE=Volksmusik und Schlager
TTITLE0=Patrick Linder - Die Kloane aus der letzten Bank
TTITLE1=Münchner Zwietracht - Auf der Alm
TTITLE2=Gaby Albrecht - Ein handvoll Heimatland
TTITLE3=Orig. Naabtal Duo - A bisserl was geht immer
TTITLE4=Medium Terzett - Hey Papa hol den Hammer
TTITLE5=Der grosse Klaus - Heidi, Resi
TTITLE6=Goldried Quintett - Glockl Hochzeit
TTITLE7=Bianca - Eines Tages wirst du wieder fliegen
TTITLE8=Peter Alexander - Auf die Liebe kommt es an
TTITLE9=Rosi - Das Kitzbühl Lied
TTITLE10=Edward Simoni - Romantica
TTITLE11=Zillertaler Jodlertrio - A handvoll Tirol
TTITLE12=Isarflimmern - Mauerblümchen
TTITLE13=Tiroler Echo - An Tanz mit Dir
TTITLE14=Zillertaler Schürzenjäger - Der Jodelautomat (Japaner)
TTITLE15=Tony Marshall and Roberto Blacno - Limbo auf Jamaika
EXTD=CD von I.B.\n
EXTT0=
EXTT1=
EXTT2=
EXTT3=
EXTT4=
EXTT5=
EXTT6=
EXTT7=
EXTT8=
EXTT9=
EXTT10=
EXTT11=
EXTT12=
EXTT13=
EXTT14=
EXTT15=
PLAYORDER=
